<svg data-v-fde0c5aa="" xmlns="http://www.w3.org/2000/svg" viewBox="0 0 300 300" class="iconLeft"><!----><defs data-v-fde0c5aa=""><!----></defs><rect data-v-fde0c5aa="" fill="transparent" x="0" y="0" width="300px" height="300px" class="logo-background-square"></rect><defs data-v-fde0c5aa=""><!----></defs><g data-v-fde0c5aa="" id="ee6dddcb-48e2-49b2-9b39-c4ca46f50fc4" fill="#000000" transform="matrix(3.8515210115857275,0,0,3.8515210115857275,105.82361309814205,120.82472723530911)"><path d="M0.94 12.29L0.94 2.69L2.97 2.69L2.97 12.29L0.94 12.29ZM4.89 12.29L4.89 4.93L6.52 4.93L6.66 5.89L6.76 5.89L6.76 5.89Q7.66 4.76 9.06 4.76L9.06 4.76L9.06 4.76Q10.19 4.76 10.84 5.38L10.84 5.38L10.84 5.38Q11.49 5.99 11.49 7.35L11.49 7.35L11.49 12.29L9.58 12.29L9.58 7.76L9.58 7.76Q9.58 7.07 9.25 6.76L9.25 6.76L9.25 6.76Q8.93 6.45 8.30 6.45L8.30 6.45L8.30 6.45Q7.66 6.45 7.23 6.91L7.23 6.91L7.23 6.91Q6.80 7.36 6.80 8.04L6.80 8.04L6.80 12.29L4.89 12.29ZM15.32 12.29L12.57 4.93L14.57 4.93L15.72 8.09L15.72 8.09Q15.85 8.44 16.06 9.24L16.06 9.24L16.06 9.24Q16.27 10.04 16.34 10.30L16.34 10.30L16.41 10.30L16.41 10.30Q16.46 10.05 16.67 9.28L16.67 9.28L16.67 9.28Q16.87 8.50 17.02 8.09L17.02 8.09L18.16 4.93L20.10 4.93L17.35 12.29L15.32 12.29ZM24.26 12.46L24.26 12.46Q22.48 12.46 21.61 11.52L21.61 11.52L21.61 11.52Q20.73 10.58 20.73 8.61L20.73 8.61L20.73 8.61Q20.73 6.64 21.61 5.70L21.61 5.70L21.61 5.70Q22.48 4.76 24.26 4.76L24.26 4.76L24.26 4.76Q25.90 4.76 26.71 5.71L26.71 5.71L26.71 5.71Q27.52 6.65 27.52 8.61L27.52 8.61L27.52 9.06L22.68 9.06L22.68 9.06Q22.71 10.04 23.07 10.51L23.07 10.51L23.07 10.51Q23.44 10.98 24.29 10.98L24.29 10.98L24.29 10.98Q24.89 10.98 25.26 10.64L25.26 10.64L25.26 10.64Q25.63 10.30 25.63 9.69L25.63 9.69L27.52 9.69L27.52 9.69Q27.52 11.07 26.63 11.77L26.63 11.77L26.63 11.77Q25.73 12.46 24.26 12.46L24.26 12.46ZM22.71 7.78L25.54 7.78L25.54 7.78Q25.54 6.26 24.26 6.26L24.26 6.26L24.26 6.26Q23.53 6.26 23.16 6.64L23.16 6.64L23.16 6.64Q22.79 7.01 22.71 7.78L22.71 7.78ZM31.95 12.46L31.95 12.46Q30.41 12.46 29.53 11.82L29.53 11.82L29.53 11.82Q28.66 11.19 28.66 10.12L28.66 10.12L28.67 9.95L30.53 9.95L30.53 10.05L30.53 10.05Q30.55 10.54 30.97 10.76L30.97 10.76L30.97 10.76Q31.40 10.98 32.02 10.98L32.02 10.98L32.02 10.98Q32.59 10.98 33.00 10.82L33.00 10.82L33.00 10.82Q33.40 10.67 33.40 10.32L33.40 10.32L33.40 10.32Q33.40 9.93 32.99 9.73L32.99 9.73L32.99 9.73Q32.58 9.53 31.70 9.34L31.70 9.34L31.70 9.34Q30.79 9.13 30.21 8.91L30.21 8.91L30.21 8.91Q29.64 8.69 29.22 8.23L29.22 8.23L29.22 8.23Q28.80 7.77 28.80 7L28.80 7L28.80 7Q28.80 5.92 29.70 5.34L29.70 5.34L29.70 5.34Q30.60 4.76 32.03 4.76L32.03 4.76L32.03 4.76Q33.36 4.76 34.23 5.30L34.23 5.30L34.23 5.30Q35.10 5.84 35.10 6.76L35.10 6.76L35.08 7.08L33.22 7.08L33.22 7.06L33.22 7.06Q33.21 6.65 32.87 6.45L32.87 6.45L32.87 6.45Q32.54 6.24 31.96 6.24L31.96 6.24L31.96 6.24Q31.39 6.24 31.05 6.40L31.05 6.40L31.05 6.40Q30.72 6.55 30.72 6.83L30.72 6.83L30.72 6.83Q30.72 7.18 31.10 7.35L31.10 7.35L31.10 7.35Q31.49 7.52 32.34 7.69L32.34 7.69L32.34 7.69Q33.28 7.90 33.87 8.11L33.87 8.11L33.87 8.11Q34.45 8.32 34.89 8.79L34.89 8.79L34.89 8.79Q35.32 9.27 35.32 10.08L35.32 10.08L35.32 10.08Q35.32 12.46 31.95 12.46L31.95 12.46ZM38.77 12.46L38.77 12.46Q37.73 12.46 37.28 11.90L37.28 11.90L37.28 11.90Q36.83 11.34 36.83 10.49L36.83 10.49L36.83 6.50L35.95 6.50L35.95 4.93L36.88 4.93L37.20 2.86L38.75 2.86L38.75 4.93L40.03 4.93L40.03 6.50L38.75 6.50L38.75 10.29L38.75 10.29Q38.75 10.89 39.35 10.89L39.35 10.89L40.03 10.89L40.03 12.24L40.03 12.24Q39.79 12.32 39.43 12.39L39.43 12.39L39.43 12.39Q39.07 12.46 38.77 12.46L38.77 12.46Z"></path></g><defs data-v-fde0c5aa=""><!----></defs><g data-v-fde0c5aa="" id="a8ab1f31-e3fb-4360-a646-5b4aa4f52ffc" stroke="none" fill="#395ECA" transform="matrix(1.763876345919326,0,0,1.763876345919326,40,121.77797846529079)"><path d="M9.382 8.675h13.943v13.943L32 31.293V0H.707zM22.618 23.325H8.675V9.382L0 .707V32h31.293z"></path></g><!----></svg>